<?xml version="1.0" encoding="utf-8"?>
<!-- Generator: Adobe Illustrator 25.4.1, SVG Export Plug-In . SVG Version: 6.00 Build 0)  -->
<svg version="1.1" xmlns="http://www.w3.org/2000/svg" xmlns:xlink="http://www.w3.org/1999/xlink" x="0px" y="0px"
	 viewBox="0 0 400 400" enable-background="new 0 0 400 400" xml:space="preserve">
<g id="background">
	<path fill="#563D7C" d="M96.52,51h207.09c0,0,44.89,3.82,43.39,50.16c1.5,48.34,0,198.18,0,198.18s1.31,39.16-46.59,49.66
		c-46.91-0.5-205.66,0-205.66,0S51.5,345.02,49,300.76c0.5-45.26,0-202.46,0-202.46S45.55,52.5,96.52,51z"/>
</g>
<g id="B">
	<path fill="#FFFFFF" d="M129.5,116.5h100.33c0,0,37.67,4,36.67,41s-25,38-25,38s34,10,32,41s-12,46-44,52c-30,1-100,0-100,0V116.5z
		"/>
</g>
<g id="cutouts">
	<path fill="#563D7C" stroke="#FFFFFF" stroke-miterlimit="10" d="M160.5,210.5h63.56c0,0,18.44,3,19.44,24s-19,29-19,29h-64V210.5z
		"/>
	<path fill="#563D7C" stroke="#FFFFFF" stroke-miterlimit="10" d="M159.57,140.73h58.56c0,0,16.99,2.75,17.91,21.96
		s-17.5,26.54-17.5,26.54h-58.96V140.73z"/>
</g>
</svg>
