<svg version="1.1" id="Layer_5" xmlns="http://www.w3.org/2000/svg" xmlns:xlink="http://www.w3.org/1999/xlink" x="0px" y="0px"
	 viewBox="0 0 400 400" enable-background="new 0 0 400 400" xml:space="preserve">
<g>
	<polygon fill="#0B74B7" stroke="#0B74B7" stroke-miterlimit="10" points="56.5,52.5 345.32,52.5 319.5,349.5 200,382.86 
		81.5,348.5 	"/>
	<polygon fill="#2EAADD" stroke="#2EAADD" stroke-miterlimit="10" points="200.5,78.5 320.09,76.77 297.09,329.77 200.5,353.67 	"/>
</g>
<g id="XMLID_00000157309367067467072070000000079370256469220013_">
	<g>
		<polygon fill="#FEFEFE" points="291.61,112.5 288.58,149.51 288.5,149.5 200.07,149.5 111.5,149.49 108.5,112.5 		"/>
		<polygon fill="#FEFEFE" points="284.49,186.5 276.5,297.5 200,318.7 126.5,298.5 121.5,239.5 158.5,240.5 160.5,270.5 200,281.16 
			239.5,270.5 244.5,223.5 118.49,223.5 116.54,186.52 117,186.5 207.5,186.5 208,186.5 		"/>
		<polygon fill="#DBDDDD" points="288.5,149.5 288.58,149.51 288.5,150.5 207.5,186.5 117,186.5 116.54,186.52 116.49,185.49 
			200.07,149.5 		"/>
	</g>
	<g>
	</g>
</g>
</svg>
