<?xml version="1.0" encoding="utf-8"?>
<!-- Generator: Adobe Illustrator 25.4.1, SVG Export Plug-In . SVG Version: 6.00 Build 0)  -->
<svg version="1.1" id="Javascript" xmlns="http://www.w3.org/2000/svg" xmlns:xlink="http://www.w3.org/1999/xlink" x="0px" y="0px"
	 viewBox="0 0 400 400" enable-background="new 0 0 400 400" xml:space="preserve">
<g>
	<polygon id="Background" fill="#DBB92C" stroke="#DBB92C" stroke-miterlimit="10" points="56.5,52.5 345.32,52.5 319.5,349.5 
		200,382.86 81.5,348.5 	"/>
	<polygon id="highlight" fill="#FFD93B" stroke="#FFD93B" stroke-miterlimit="10" points="200.5,78.5 320.09,76.77 297.09,329.77 
		200.5,353.67 	"/>
</g>
<polygon id="S" fill="#FFFFFF" stroke="#FFFFFF" stroke-miterlimit="10" points="159.5,114.5 193.24,114.5 193.24,317.51 
	125.5,299.5 121.5,241.5 150.5,241.5 152.5,270.5 164.5,271.5 "/>
<polygon id="J" fill="#FFFFFF" stroke="#FFFFFF" stroke-miterlimit="10" points="208,114.5 290.43,114.5 289,150 245.04,150 
	246,188 284.96,188 276,299 208,317.51 208,280.68 242,270 245,223 208,223.42 "/>
</svg>
