<?xml version="1.0" encoding="utf-8"?>
<!-- Generator: Adobe Illustrator 25.4.1, SVG Export Plug-In . SVG Version: 6.00 Build 0)  -->
<svg version="1.1" xmlns="http://www.w3.org/2000/svg" xmlns:xlink="http://www.w3.org/1999/xlink" x="0px" y="0px"
	 viewBox="0 0 400 400" enable-background="new 0 0 400 400" xml:space="preserve">
<g id="Javascript">
	<path fill="#D56EA3" d="M33.5,85.6c0,0,0-23.1,25-29.1h276.84c0,0,21.16,4,24.16,26s2,277,2,277s-2,21-23,25s-276.43,0-276.43,0
		s-22.57-2-28.57-28"/>
</g>
<g id="Layer_3">
	<path id="Sass" fill="#FFFFFF" stroke="#FFFFFF" stroke-miterlimit="10" d="M113.12,255.74c-9.05,5.68-17.55,10.4-25.37,16.06
		c-9.1,6.59-17.62,13.96-20.43,25.74c-3.79,15.88,4.73,26.9,20.82,26.82c28-0.14,50.69-28.81,45-56.85
		c-2.28-11.21-0.71-13.49,11.54-16.2c-0.46,2.46-1,4.71-1.31,7c-1.47,10.94-1.83,21.76,3.67,31.9c5.43,10.02,14.53,10.56,20.53,0.97
		c2.95-4.71,5.24-9.84,8.54-16.13c0.23,4.35,0.08,7.04,0.57,9.61c0.73,3.82,1.98,7.8,6.18,8.99c4.31,1.23,7.36-1.75,9.67-4.79
		c2.65-3.5,4.71-7.45,6.97-11.24c8.43-14.09,14.48-29.38,21.53-44.82c2.03,6,2.94,11.47,5.61,15.89c3.68,6.1,1.82,10.25-2.26,14.87
		c-4.68,5.29-9.04,10.88-13.33,16.49c-4.04,5.29-2.37,8.85,3.93,9.99c17.97,3.27,34.56-14.47,30.37-32.18
		c-0.63-2.66-2.75-5.15-0.69-8.38c5.21-8.12,10.07-16.46,15.43-25.3c1.55,4.77,2.36,9.08,4.31,12.8c3.09,5.87,2.09,10.07-2.69,14.6
		c-5.4,5.11-9.09,11.63-10.41,19.12c-0.99,5.66,1.32,9.25,7.38,9.49c14.22,0.56,28.2-15.15,25.73-29.23
		c-0.77-4.41,0.28-6.76,4.59-7.68c12.71-2.72,25.12-2.16,37.06,3.41c14.37,6.71,19.1,24.32,4.84,32.92c-0.21,0.13,0.02,1,0.04,1.53
		c9.47-1.85,14.7-7.91,15.04-17.36c0.39-11.12-7.52-22.6-19.83-27.85c-13.67-5.83-27.64-5.23-41.28-0.03
		c-4.55,1.74-6.15,0.45-7.96-3.34c-4.02-8.39-4.75-16.84-1.94-25.73c2.39-7.57,0.12-10.28-7.65-9.41c-5.31,0.6-9.08,2.45-10.49,8.65
		c-2.97,13.05-10.5,23.96-17.85,35.88c-5.53-8.77-5.21-16.97-3.33-25.56c0.73-3.32,5.19-8.57-1.83-9.91
		c-5.52-1.05-12.35-2.03-14.86,5.56c-6.38,19.36-15.83,37.37-24,55.94c-0.91,2.06-1.35,4.91-4.9,5.81
		c0.14-9.77,3.5-18.34,5.51-27.17c1.23-5.41,5.17-11.93-5.26-12.89c-2.71-0.25-1.54-3.34-1.81-5.22
		c-1.56-10.96-7.34-14.28-17.23-9.44c-3.66,1.79-7.66,3.82-10.16,6.86c-8.77,10.68-21.32,15.42-32.65,22.12
		c-2.67,1.58-4.38,1.59-6.89-0.61c-8.64-7.56-17.64-14.7-26.4-22.12c-20.38-17.25-21.3-35.96-2.69-55.34
		c16.04-16.72,35.98-27.42,57.08-36.08c16.79-6.89,34.22-10.41,52.55-7.94c19.57,2.64,26.39,15.01,17.62,32.57
		c-1.44,2.88-3.07,5.77-5.1,8.24c-15.46,18.83-35.86,27.99-59.72,30.27c-11.17,1.07-21.21-1.92-30.57-10.67
		c1.66,10.44,8.28,16.8,18.59,19.32c16.67,4.08,32.91,1.17,48.49-4.61c23.99-8.89,41.39-24.58,47.04-50.71
		c3.45-15.93-2.63-28.6-17.15-35.95c-12.11-6.13-25.28-8.63-38.59-7.11c-41.51,4.74-77.43,22.17-106.7,51.77
		c-26.64,26.94-24.61,49.15,5.01,72.8C91.32,240.08,102.14,247.61,113.12,255.74z"/>
	<path id="_x32_nd_s_cutout" fill="#D56EA3" d="M120.48,262.45c4.23,20.98-5.37,38.91-22.94,44.39c-3.75,1.17-7.52,2.28-10.67-0.94
		c-3.01-3.08-2.56-6.74-1.42-10.67c1.7-5.87,5.12-10.44,9.38-14.58C102.22,273.45,110.81,267.97,120.48,262.45z"/>
	<path id="first_s_cut_out" fill="#D56EA3" d="M156.85,266.76c1.36-12.79,5.21-25.48,15.65-35.32c1.69-1.59,3.79-3.57,6.19-2.15
		c2.47,1.47,1.41,4.32,0.86,6.44c-3.4,13.1-8.41,25.62-13.99,37.92c-1.05,2.31-1.9,6.02-4.74,5.69c-3.49-0.41-2.86-4.55-3.63-7.21
		C156.77,270.78,156.97,269.23,156.85,266.76z"/>
	<path id="a_cut_out" fill="#D56EA3" d="M261.22,270.84c0.58-7.15,3.8-11.86,7.37-16.37c0.83-1.04,1.78-2.61,3.51-1.81
		c1.59,0.74,1.39,2.46,1.23,3.8C272.51,263.37,269.09,268.27,261.22,270.84z"/>
	<path id="s_cutout" fill="#D56EA3" d="M220.34,284.22c0.58-7.15,3.8-11.86,7.37-16.37c0.83-1.04,1.78-2.61,3.51-1.81
		c1.59,0.74,1.39,2.46,1.23,3.8C231.63,276.75,228.21,281.65,220.34,284.22z"/>
</g>
</svg>
